<svg width="325" height="62" viewBox="0 0 325 62" fill="none" xmlns="http://www.w3.org/2000/svg">
<path d="M10.7264 18.0849C10.7264 17.1969 10.4635 16.5178 9.93771 16.0476C9.41191 15.5671 8.46546 15.0656 7.09837 14.5432C5.73127 14.0103 4.64899 13.488 3.85152 12.976C1.67819 11.576 0.59153 9.69023 0.59153 7.3186C0.59153 6.08578 0.880723 4.98877 1.45911 4.02758C2.04626 3.05595 2.88316 2.29849 3.96983 1.75521C5.06525 1.21193 6.29213 0.940292 7.65046 0.940292C9.01755 0.940292 10.2357 1.23805 11.3048 1.83357C12.3739 2.41864 13.2021 3.24923 13.7892 4.32534C14.3851 5.40145 14.6831 6.62383 14.6831 7.99248H10.7396C10.7396 6.94771 10.4635 6.13802 9.91142 5.56339C9.35933 4.97832 8.58376 4.68579 7.58474 4.68579C6.62076 4.68579 5.87149 4.93131 5.33692 5.42235C4.80235 5.90294 4.53507 6.54025 4.53507 7.33428C4.53507 8.07606 4.84617 8.6977 5.46837 9.19919C6.09934 9.70068 7.02388 10.1708 8.24199 10.6096C10.4854 11.4141 12.1198 12.4119 13.1451 13.6029C14.1704 14.7939 14.6831 16.2775 14.6831 18.0536C14.6831 20.0282 14.0565 21.5797 12.8033 22.708C11.5502 23.8259 9.86322 24.3849 7.74248 24.3849C6.27022 24.3849 4.92942 24.0662 3.72007 23.4289C2.51072 22.7812 1.58618 21.8984 0.946449 20.7804C0.315483 19.6625 0 18.367 0 16.8939H3.95668C3.95668 19.4118 5.21861 20.6707 7.74248 20.6707C8.68016 20.6707 9.41191 20.4461 9.93771 19.9969C10.4635 19.5372 10.7264 18.8999 10.7264 18.0849Z" fill="black"/>
<path d="M21.1242 24.0715H17.3121V7.11487H21.1242V24.0715ZM17.0887 2.72685C17.0887 2.04775 17.2771 1.4888 17.6539 1.04999C18.0395 0.61119 18.5609 0.391788 19.2182 0.391788C19.8667 0.391788 20.3837 0.61119 20.7693 1.04999C21.1549 1.4888 21.3477 2.04775 21.3477 2.72685C21.3477 3.41639 21.1505 3.98057 20.7561 4.41937C20.3706 4.85817 19.8579 5.07758 19.2182 5.07758C18.5784 5.07758 18.0614 4.85817 17.667 4.41937C17.2815 3.98057 17.0887 3.41639 17.0887 2.72685Z" fill="black"/>
<path d="M31.9689 19.3857C31.9689 18.832 31.7367 18.3984 31.2722 18.0849C30.8165 17.7611 30.0804 17.4738 29.0639 17.223C25.6812 16.3767 23.9898 14.6633 23.9898 12.0827C23.9898 10.5783 24.5113 9.32456 25.5541 8.32158C26.6057 7.30816 27.9772 6.80144 29.6685 6.80144C31.4738 6.80144 32.9154 7.30816 33.9933 8.32158C35.0799 9.33501 35.6233 10.6514 35.6233 12.2708H31.8243C31.8243 11.6231 31.6491 11.0902 31.2985 10.6723C30.948 10.244 30.4003 10.0298 29.6554 10.0298C29.0157 10.0298 28.5205 10.2022 28.17 10.5469C27.8195 10.8917 27.6442 11.3305 27.6442 11.8633C27.6442 12.3648 27.8414 12.7723 28.2357 13.0857C28.6388 13.3887 29.3136 13.6551 30.2601 13.885C31.2065 14.1044 32.004 14.3551 32.6525 14.6372C34.6593 15.5148 35.6627 17.035 35.6627 19.1976C35.6627 20.7439 35.1062 21.9976 33.9933 22.9588C32.8803 23.9095 31.4431 24.3849 29.6817 24.3849C28.4899 24.3849 27.4295 24.1342 26.5006 23.6327C25.5804 23.1207 24.8574 22.426 24.3316 21.5484C23.8058 20.6603 23.5429 19.7043 23.5429 18.6805H27.1447C27.1797 19.4849 27.4295 20.1013 27.8939 20.5297C28.3584 20.9581 28.9806 21.1722 29.7606 21.1722C30.4879 21.1722 31.0356 21.0103 31.4037 20.6864C31.7805 20.3521 31.9689 19.9185 31.9689 19.3857Z" fill="black"/>
<path d="M42.6691 2.94625V7.11487H45.1009V10.4372H42.6691V18.8999C42.6691 19.5267 42.7698 19.976 42.9714 20.2476C43.173 20.5193 43.5585 20.6551 44.1282 20.6551C44.5488 20.6551 44.9213 20.6185 45.2455 20.5454V23.9774C44.5006 24.2491 43.7338 24.3849 42.9451 24.3849C40.281 24.3849 38.9227 22.7812 38.8701 19.5737V10.4372H36.7932V7.11487H38.8701V2.94625H42.6691Z" fill="black"/>
<path d="M53.7635 24.3849C51.6779 24.3849 49.9778 23.6222 48.6632 22.0969C47.3575 20.5715 46.7046 18.5394 46.7046 16.0006V15.5618C46.7046 13.8589 46.9807 12.3387 47.5328 11.0014C48.0849 9.65366 48.8648 8.61934 49.8726 7.89845C50.8892 7.16711 52.0459 6.80144 53.3429 6.80144C55.2884 6.80144 56.8176 7.53278 57.9306 8.99546C59.0523 10.4581 59.6131 12.532 59.6131 15.2171V17.0663H50.5561C50.6788 18.1738 51.0469 19.0618 51.6603 19.7305C52.2825 20.3991 53.0669 20.7334 54.0133 20.7334C55.4768 20.7334 56.6204 20.1013 57.4442 18.8372L59.3108 21.329C58.7412 22.2901 57.97 23.0424 56.9972 23.5857C56.0245 24.1185 54.9466 24.3849 53.7635 24.3849ZM53.3298 10.4686C52.5761 10.4686 51.9627 10.7716 51.4894 11.3775C51.025 11.9835 50.727 12.8507 50.5956 13.979H55.8799V13.6186C55.8624 12.6156 55.6345 11.8425 55.1964 11.2992C54.7582 10.7454 54.136 10.4686 53.3298 10.4686Z" fill="black"/>
<path d="M65.3444 7.11487L65.4627 9.01113C66.4705 7.53801 67.8332 6.80144 69.5508 6.80144C71.3824 6.80144 72.6399 7.66338 73.3235 9.38725C74.3225 7.66338 75.7466 6.80144 77.5957 6.80144C79.138 6.80144 80.286 7.3395 81.0397 8.41561C81.7933 9.48128 82.1702 11.0902 82.1702 13.2424V24.0715H78.3581V13.2581C78.3581 12.2969 78.2003 11.5969 77.8848 11.1581C77.5694 10.7089 77.0129 10.4843 76.2154 10.4843C75.0762 10.4843 74.2875 11.132 73.8493 12.4275L73.8624 24.0715H70.0635V13.2738C70.0635 12.2917 69.9014 11.5813 69.5771 11.1425C69.2529 10.7037 68.7008 10.4843 67.9208 10.4843C66.8429 10.4843 66.063 11.0171 65.581 12.0827V24.0715H61.7821V7.11487H65.3444Z" fill="black"/>
<path d="M93.3435 24.0715C93.1682 23.664 93.0412 23.1573 92.9623 22.5513C92.0421 23.7737 90.8459 24.3849 89.3737 24.3849C87.9803 24.3849 86.8235 23.9043 85.9034 22.9431C84.992 21.9819 84.5363 20.77 84.5363 19.3073C84.5363 17.5103 85.0927 16.1312 86.2057 15.17C87.3274 14.2089 88.9443 13.723 91.0563 13.7126H92.8046V12.741C92.8046 11.9574 92.6337 11.3305 92.2919 10.8604C91.9589 10.3902 91.4287 10.1552 90.7013 10.1552C90.0616 10.1552 89.5577 10.338 89.1896 10.7037C88.8303 11.0693 88.6507 11.5708 88.6507 12.2081H84.8518C84.8518 11.226 85.1059 10.3171 85.6142 9.48128C86.1224 8.64546 86.8411 7.99248 87.77 7.52233C88.6989 7.04174 89.7417 6.80144 90.8985 6.80144C92.6512 6.80144 94.0402 7.32905 95.0655 8.38427C96.0996 9.42904 96.6166 10.9022 96.6166 12.8036V20.1536C96.6254 21.7625 96.8138 22.9797 97.1819 23.8051V24.0715H93.3435ZM90.2018 20.9215C90.7627 20.9215 91.2797 20.7752 91.7529 20.4827C92.2262 20.1797 92.5767 19.7775 92.8046 19.276V16.3611H91.3849C89.4832 16.3611 88.471 17.1447 88.3484 18.7118L88.3352 18.9782C88.3352 19.5424 88.5017 20.0073 88.8347 20.373C89.1677 20.7387 89.6234 20.9215 90.2018 20.9215Z" fill="black"/>
<path d="M105.647 15.4678C105.647 12.8245 106.142 10.7193 107.133 9.15217C108.132 7.58502 109.494 6.80144 111.221 6.80144C112.605 6.80144 113.749 7.41786 114.652 8.65068V0H118.464V24.0715H115.033L114.849 22.2692C113.902 23.6797 112.684 24.3849 111.195 24.3849C109.521 24.3849 108.176 23.6013 107.159 22.0342C106.151 20.4566 105.647 18.2678 105.647 15.4678ZM109.446 15.7969C109.446 17.385 109.679 18.6021 110.143 19.4484C110.607 20.2946 111.282 20.7178 112.167 20.7178C113.342 20.7178 114.17 20.1275 114.652 18.9469V12.2551C114.179 11.0745 113.359 10.4843 112.194 10.4843C110.362 10.4843 109.446 12.2551 109.446 15.7969Z" fill="black"/>
<path d="M127.955 24.3849C125.869 24.3849 124.169 23.6222 122.854 22.0969C121.549 20.5715 120.896 18.5394 120.896 16.0006V15.5618C120.896 13.8589 121.172 12.3387 121.724 11.0014C122.276 9.65366 123.056 8.61934 124.064 7.89845C125.08 7.16711 126.237 6.80144 127.534 6.80144C129.479 6.80144 131.009 7.53278 132.122 8.99546C133.243 10.4581 133.804 12.532 133.804 15.2171V17.0663H124.747C124.87 18.1738 125.238 19.0618 125.851 19.7305C126.474 20.3991 127.258 20.7334 128.204 20.7334C129.668 20.7334 130.811 20.1013 131.635 18.8372L133.502 21.329C132.932 22.2901 132.161 23.0424 131.188 23.5857C130.216 24.1185 129.138 24.3849 127.955 24.3849ZM127.521 10.4686C126.767 10.4686 126.154 10.7716 125.681 11.3775C125.216 11.9835 124.918 12.8507 124.787 13.979H130.071V13.6186C130.053 12.6156 129.826 11.8425 129.387 11.2992C128.949 10.7454 128.327 10.4686 127.521 10.4686Z" fill="black"/>
<path d="M158.07 21.1879C157.36 22.2013 156.357 22.9901 155.06 23.5543C153.763 24.108 152.326 24.3849 150.748 24.3849C149.092 24.3849 147.637 23.9565 146.384 23.0998C145.14 22.2327 144.176 20.979 143.492 19.3387C142.817 17.6984 142.471 15.7708 142.454 13.5559V12.0044C142.454 9.7268 142.774 7.75741 143.413 6.09623C144.062 4.4246 144.991 3.14998 146.2 2.27237C147.418 1.38432 148.842 0.940292 150.472 0.940292C152.742 0.940292 154.517 1.58805 155.796 2.88356C157.075 4.16863 157.833 6.04399 158.07 8.50964H154.232C154.056 7.20368 153.666 6.24772 153.062 5.64175C152.466 5.03578 151.642 4.7328 150.591 4.7328C149.25 4.7328 148.229 5.33354 147.528 6.53503C146.827 7.73651 146.472 9.52307 146.463 11.8947V13.3521C146.463 15.7447 146.844 17.5521 147.607 18.7745C148.369 19.9969 149.486 20.6081 150.959 20.6081C152.44 20.6081 153.496 20.2319 154.127 19.4797V15.5462H150.538V12.0827H158.07V21.1879Z" fill="black"/>
<path d="M167.574 24.3849C165.488 24.3849 163.788 23.6222 162.474 22.0969C161.168 20.5715 160.515 18.5394 160.515 16.0006V15.5618C160.515 13.8589 160.791 12.3387 161.343 11.0014C161.895 9.65366 162.675 8.61934 163.683 7.89845C164.7 7.16711 165.856 6.80144 167.153 6.80144C169.099 6.80144 170.628 7.53278 171.741 8.99546C172.863 10.4581 173.424 12.532 173.424 15.2171V17.0663H164.367C164.489 18.1738 164.857 19.0618 165.471 19.7305C166.093 20.3991 166.877 20.7334 167.824 20.7334C169.287 20.7334 170.431 20.1013 171.255 18.8372L173.121 21.329C172.552 22.2901 171.78 23.0424 170.808 23.5857C169.835 24.1185 168.757 24.3849 167.574 24.3849ZM167.14 10.4686C166.387 10.4686 165.773 10.7716 165.3 11.3775C164.835 11.9835 164.537 12.8507 164.406 13.979H169.69V13.6186C169.673 12.6156 169.445 11.8425 169.007 11.2992C168.569 10.7454 167.946 10.4686 167.14 10.4686Z" fill="black"/>
<path d="M183.585 11.3619C183.068 11.2783 182.612 11.2365 182.218 11.2365C180.78 11.2365 179.838 11.8163 179.391 12.976V24.0715H175.593V7.11487H179.181L179.286 9.1365C180.049 7.5798 181.105 6.80144 182.454 6.80144C182.875 6.80144 183.269 6.86935 183.637 7.00517L183.585 11.3619Z" fill="black"/>
<path d="M191.708 24.3849C189.623 24.3849 187.923 23.6222 186.608 22.0969C185.302 20.5715 184.65 18.5394 184.65 16.0006V15.5618C184.65 13.8589 184.926 12.3387 185.478 11.0014C186.03 9.65366 186.81 8.61934 187.817 7.89845C188.834 7.16711 189.991 6.80144 191.288 6.80144C193.233 6.80144 194.762 7.53278 195.875 8.99546C196.997 10.4581 197.558 12.532 197.558 15.2171V17.0663H188.501C188.624 18.1738 188.992 19.0618 189.605 19.7305C190.227 20.3991 191.012 20.7334 191.958 20.7334C193.422 20.7334 194.565 20.1013 195.389 18.8372L197.256 21.329C196.686 22.2901 195.915 23.0424 194.942 23.5857C193.969 24.1185 192.892 24.3849 191.708 24.3849ZM191.275 10.4686C190.521 10.4686 189.908 10.7716 189.434 11.3775C188.97 11.9835 188.672 12.8507 188.54 13.979H193.825V13.6186C193.807 12.6156 193.579 11.8425 193.141 11.2992C192.703 10.7454 192.081 10.4686 191.275 10.4686Z" fill="black"/>
<path d="M203.224 7.11487L203.342 9.07382C204.358 7.5589 205.721 6.80144 207.43 6.80144C208.937 6.80144 210.059 7.32905 210.795 8.38427C211.531 9.43948 211.908 11.0171 211.926 13.1171V24.0715H208.127V13.2268C208.127 12.2656 207.951 11.5708 207.601 11.1425C207.25 10.7037 206.668 10.4843 205.853 10.4843C204.783 10.4843 203.982 11.0275 203.447 12.1141V24.0715H199.648V7.11487H203.224Z" fill="black"/>
<path d="M220.733 20.7334C221.434 20.7334 222.004 20.5036 222.442 20.0439C222.88 19.5842 223.108 18.973 223.125 18.2103H226.688C226.679 19.3596 226.416 20.4148 225.899 21.376C225.382 22.3267 224.672 23.0685 223.769 23.6013C222.876 24.1237 221.885 24.3849 220.799 24.3849C218.765 24.3849 217.162 23.617 215.987 22.0812C214.813 20.5349 214.226 18.4036 214.226 15.6872V15.3894C214.226 12.7775 214.809 10.6932 215.974 9.1365C217.14 7.5798 218.739 6.80144 220.772 6.80144C222.551 6.80144 223.975 7.40741 225.044 8.61934C226.122 9.82083 226.67 11.4245 226.688 13.4305H223.125C223.108 12.5529 222.88 11.8425 222.442 11.2992C222.004 10.7454 221.425 10.4686 220.707 10.4686C219.821 10.4686 219.151 10.8551 218.695 11.6283C218.248 12.391 218.025 13.6342 218.025 15.3581V15.8282C218.025 17.573 218.248 18.8267 218.695 19.5894C219.142 20.3521 219.821 20.7334 220.733 20.7334Z" fill="black"/>
<path d="M232.866 24.0715H229.054V7.11487H232.866V24.0715ZM228.83 2.72685C228.83 2.04775 229.019 1.4888 229.396 1.04999C229.781 0.61119 230.303 0.391788 230.96 0.391788C231.608 0.391788 232.125 0.61119 232.511 1.04999C232.897 1.4888 233.089 2.04775 233.089 2.72685C233.089 3.41639 232.892 3.98057 232.498 4.41937C232.112 4.85817 231.6 5.07758 230.96 5.07758C230.32 5.07758 229.803 4.85817 229.409 4.41937C229.023 3.98057 228.83 3.41639 228.83 2.72685Z" fill="black"/>
<path d="M244.249 24.0715C244.074 23.664 243.947 23.1573 243.868 22.5513C242.948 23.7737 241.752 24.3849 240.28 24.3849C238.886 24.3849 237.73 23.9043 236.809 22.9431C235.898 21.9819 235.442 20.77 235.442 19.3073C235.442 17.5103 235.999 16.1312 237.112 15.17C238.233 14.2089 239.85 13.723 241.962 13.7126H243.711V12.741C243.711 11.9574 243.54 11.3305 243.198 10.8604C242.865 10.3902 242.335 10.1552 241.607 10.1552C240.968 10.1552 240.464 10.338 240.096 10.7037C239.736 11.0693 239.557 11.5708 239.557 12.2081H235.758C235.758 11.226 236.012 10.3171 236.52 9.48128C237.028 8.64546 237.747 7.99248 238.676 7.52233C239.605 7.04174 240.648 6.80144 241.805 6.80144C243.557 6.80144 244.946 7.32905 245.972 8.38427C247.006 9.42904 247.523 10.9022 247.523 12.8036V20.1536C247.531 21.7625 247.72 22.9797 248.088 23.8051V24.0715H244.249ZM241.108 20.9215C241.669 20.9215 242.186 20.7752 242.659 20.4827C243.132 20.1797 243.483 19.7775 243.711 19.276V16.3611H242.291C240.389 16.3611 239.377 17.1447 239.254 18.7118L239.241 18.9782C239.241 19.5424 239.408 20.0073 239.741 20.373C240.074 20.7387 240.529 20.9215 241.108 20.9215Z" fill="black"/>
<path d="M254.003 7.11487L254.121 9.01113C255.129 7.53801 256.492 6.80144 258.21 6.80144C260.041 6.80144 261.299 7.66338 261.982 9.38725C262.981 7.66338 264.405 6.80144 266.254 6.80144C267.797 6.80144 268.945 7.3395 269.698 8.41561C270.452 9.48128 270.829 11.0902 270.829 13.2424V24.0715H267.017V13.2581C267.017 12.2969 266.859 11.5969 266.544 11.1581C266.228 10.7089 265.672 10.4843 264.874 10.4843C263.735 10.4843 262.946 11.132 262.508 12.4275L262.521 24.0715H258.722V13.2738C258.722 12.2917 258.56 11.5813 258.236 11.1425C257.912 10.7037 257.36 10.4843 256.58 10.4843C255.502 10.4843 254.722 11.0171 254.24 12.0827V24.0715H250.441V7.11487H254.003Z" fill="black"/>
<path d="M280.307 24.3849C278.221 24.3849 276.521 23.6222 275.206 22.0969C273.901 20.5715 273.248 18.5394 273.248 16.0006V15.5618C273.248 13.8589 273.524 12.3387 274.076 11.0014C274.628 9.65366 275.408 8.61934 276.416 7.89845C277.432 7.16711 278.589 6.80144 279.886 6.80144C281.831 6.80144 283.361 7.53278 284.474 8.99546C285.595 10.4581 286.156 12.532 286.156 15.2171V17.0663H277.099C277.222 18.1738 277.59 19.0618 278.203 19.7305C278.826 20.3991 279.61 20.7334 280.556 20.7334C282.02 20.7334 283.163 20.1013 283.987 18.8372L285.854 21.329C285.284 22.2901 284.513 23.0424 283.54 23.5857C282.568 24.1185 281.49 24.3849 280.307 24.3849ZM279.873 10.4686C279.119 10.4686 278.506 10.7716 278.032 11.3775C277.568 11.9835 277.27 12.8507 277.139 13.979H282.423V13.6186C282.405 12.6156 282.178 11.8425 281.739 11.2992C281.301 10.7454 280.679 10.4686 279.873 10.4686Z" fill="black"/>
<path d="M291.822 7.11487L291.94 9.07382C292.957 7.5589 294.319 6.80144 296.028 6.80144C297.535 6.80144 298.657 7.32905 299.393 8.38427C300.129 9.43948 300.506 11.0171 300.524 13.1171V24.0715H296.725V13.2268C296.725 12.2656 296.55 11.5708 296.199 11.1425C295.848 10.7037 295.266 10.4843 294.451 10.4843C293.382 10.4843 292.58 11.0275 292.045 12.1141V24.0715H288.246V7.11487H291.822Z" fill="black"/>
<path d="M307.964 2.94625V7.11487H310.396V10.4372H307.964V18.8999C307.964 19.5267 308.065 19.976 308.266 20.2476C308.468 20.5193 308.853 20.6551 309.423 20.6551C309.844 20.6551 310.216 20.6185 310.54 20.5454V23.9774C309.795 24.2491 309.029 24.3849 308.24 24.3849C305.576 24.3849 304.218 22.7812 304.165 19.5737V10.4372H302.088V7.11487H304.165V2.94625H307.964Z" fill="black"/>
<path d="M311.526 15.4365C311.526 13.7544 311.798 12.2551 312.341 10.9387C312.885 9.62232 313.665 8.60367 314.681 7.88278C315.706 7.16189 316.894 6.80144 318.243 6.80144C320.163 6.80144 321.727 7.50144 322.936 8.90143C324.154 10.3014 324.833 12.2029 324.974 14.6059L325 15.7656C325 18.367 324.391 20.4566 323.173 22.0342C321.955 23.6013 320.32 24.3849 318.27 24.3849C316.219 24.3849 314.58 23.6013 313.353 22.0342C312.135 20.467 311.526 18.3357 311.526 15.6402V15.4365ZM315.325 15.7656C315.325 17.3745 315.579 18.6073 316.088 19.464C316.596 20.3103 317.323 20.7334 318.27 20.7334C319.19 20.7334 319.908 20.3155 320.425 19.4797C320.943 18.6334 321.201 17.2857 321.201 15.4365C321.201 13.8589 320.943 12.6365 320.425 11.7693C319.908 10.9022 319.181 10.4686 318.243 10.4686C317.314 10.4686 316.596 10.9022 316.088 11.7693C315.579 12.626 315.325 13.9581 315.325 15.7656Z" fill="black"/>
<path d="M41.6569 53.0829C41.6569 50.4396 42.152 48.3344 43.1423 46.7673C44.1413 45.2001 45.504 44.4165 47.2304 44.4165C48.615 44.4165 49.7587 45.033 50.6613 46.2658V37.6151H54.4734V61.6866H51.0425L50.8585 59.8843C49.912 61.2948 48.6939 62 47.2041 62C45.5303 62 44.1851 61.2164 43.1686 59.6493C42.1608 58.0717 41.6569 55.8829 41.6569 53.0829ZM45.4558 53.412C45.4558 55 45.6881 56.2172 46.1525 57.0635C46.617 57.9097 47.2918 58.3329 48.1769 58.3329C49.3512 58.3329 50.1793 57.7426 50.6613 56.562V49.8702C50.1881 48.6896 49.3687 48.0994 48.2032 48.0994C46.3716 48.0994 45.4558 49.8702 45.4558 53.412Z" fill="black"/>
<path d="M63.9642 62C61.8785 62 60.1784 61.2373 58.8639 59.712C57.5581 58.1866 56.9052 56.1545 56.9052 53.6157V53.1769C56.9052 51.474 57.1813 49.9538 57.7334 48.6165C58.2855 47.2688 59.0654 46.2344 60.0732 45.5135C61.0898 44.7822 62.2465 44.4165 63.5435 44.4165C65.489 44.4165 67.0182 45.1479 68.1312 46.6106C69.2529 48.0732 69.8137 50.1471 69.8137 52.8322V54.6814H60.7568C60.8794 55.7889 61.2475 56.6769 61.8609 57.3456C62.4831 58.0142 63.2675 58.3485 64.2139 58.3485C65.6774 58.3485 66.821 57.7164 67.6448 56.4523L69.5114 58.9441C68.9418 59.9052 68.1706 60.6575 67.1979 61.2007C66.2251 61.7336 65.1472 62 63.9642 62ZM63.5304 48.0837C62.7767 48.0837 62.1633 48.3867 61.6901 48.9926C61.2256 49.5986 60.9276 50.4658 60.7962 51.5941H66.0805V51.2337C66.063 50.2307 65.8351 49.4576 65.397 48.9143C64.9588 48.3605 64.3366 48.0837 63.5304 48.0837Z" fill="black"/>
<path d="M82.88 53.6471V61.6866H78.9365V38.8688H86.4029C87.8401 38.8688 89.102 39.1823 90.1887 39.8091C91.2841 40.436 92.1254 41.3293 92.7125 42.4889C93.2997 43.6382 93.5933 44.9494 93.5933 46.4225C93.5933 48.6583 92.9492 50.424 91.6609 51.7195C90.3815 53.0045 88.6069 53.6471 86.3372 53.6471H82.88ZM82.88 49.8389H86.4029C87.4457 49.8389 88.2388 49.5464 88.7822 48.9613C89.3342 48.3762 89.6103 47.5404 89.6103 46.4538C89.6103 45.3359 89.3342 44.4322 88.7822 43.7427C88.2301 43.0531 87.4676 42.6979 86.4949 42.677H82.88V49.8389Z" fill="black"/>
<path d="M104.057 48.977C103.54 48.8934 103.084 48.8516 102.69 48.8516C101.252 48.8516 100.31 49.4314 99.8635 50.5911V61.6866H96.0645V44.73H99.6532L99.7583 46.7516C100.521 45.1949 101.577 44.4165 102.926 44.4165C103.347 44.4165 103.741 44.4845 104.109 44.6203L104.057 48.977Z" fill="black"/>
<path d="M104.832 53.0516C104.832 51.3695 105.104 49.8702 105.647 48.5538C106.191 47.2374 106.971 46.2188 107.987 45.4979C109.012 44.777 110.2 44.4165 111.55 44.4165C113.469 44.4165 115.033 45.1165 116.242 46.5165C117.46 47.9165 118.14 49.818 118.28 52.221L118.306 53.3807C118.306 55.9821 117.697 58.0717 116.479 59.6493C115.261 61.2164 113.626 62 111.576 62C109.525 62 107.886 61.2164 106.66 59.6493C105.441 58.0821 104.832 55.9508 104.832 53.2553V53.0516ZM108.631 53.3807C108.631 54.9896 108.885 56.2224 109.394 57.0791C109.902 57.9254 110.629 58.3485 111.576 58.3485C112.496 58.3485 113.215 57.9306 113.732 57.0948C114.249 56.2485 114.507 54.9008 114.507 53.0516C114.507 51.474 114.249 50.2516 113.732 49.3844C113.215 48.5173 112.487 48.0837 111.55 48.0837C110.621 48.0837 109.902 48.5173 109.394 49.3844C108.885 50.2411 108.631 51.5732 108.631 53.3807Z" fill="black"/>
<path d="M124.143 44.73L124.261 46.6889C125.277 45.174 126.64 44.4165 128.349 44.4165C129.856 44.4165 130.978 44.9442 131.714 45.9994C132.45 47.0546 132.827 48.6322 132.845 50.7322V61.6866H129.046V50.8419C129.046 49.8807 128.87 49.1859 128.52 48.7576C128.169 48.3188 127.587 48.0994 126.772 48.0994C125.702 48.0994 124.901 48.6426 124.366 49.7292V61.6866H120.567V44.73H124.143Z" fill="black"/>
<path d="M140.285 40.5613V44.73H142.717V48.0523H140.285V56.515C140.285 57.1418 140.386 57.5911 140.587 57.8627C140.789 58.1344 141.174 58.2702 141.744 58.2702C142.164 58.2702 142.537 58.2336 142.861 58.1605V61.5925C142.116 61.8642 141.349 62 140.561 62C137.897 62 136.538 60.3963 136.486 57.1888V48.0523H134.409V44.73H136.486V40.5613H140.285Z" fill="black"/>
<path d="M153.351 59.9627C152.413 61.3209 151.116 62 149.46 62C147.935 62 146.77 61.4776 145.963 60.4328C145.166 59.3881 144.758 57.8575 144.741 55.8411V44.73H148.54V55.6844C148.54 57.45 149.215 58.3329 150.564 58.3329C151.852 58.3329 152.738 57.8 153.22 56.7344V44.73H157.032V61.6866H153.456L153.351 59.9627Z" fill="black"/>
<path d="M168.139 61.6866C167.964 61.2791 167.837 60.7724 167.758 60.1664C166.838 61.3888 165.642 62 164.169 62C162.776 62 161.619 61.5194 160.699 60.5582C159.788 59.597 159.332 58.3851 159.332 56.9224C159.332 55.1254 159.888 53.7463 161.001 52.7851C162.123 51.824 163.74 51.3381 165.852 51.3277H167.6V50.3561C167.6 49.5725 167.429 48.9456 167.088 48.4755C166.755 48.0053 166.224 47.7702 165.497 47.7702C164.857 47.7702 164.353 47.9531 163.985 48.3188C163.626 48.6844 163.446 49.1859 163.446 49.8232H159.648C159.648 48.8411 159.902 47.9322 160.41 47.0964C160.918 46.2606 161.637 45.6076 162.566 45.1374C163.495 44.6568 164.537 44.4165 165.694 44.4165C167.447 44.4165 168.836 44.9442 169.861 45.9994C170.895 47.0441 171.412 48.5173 171.412 50.4187V57.7687C171.421 59.3776 171.61 60.5948 171.978 61.4202V61.6866H168.139ZM164.998 58.5366C165.558 58.5366 166.075 58.3903 166.549 58.0978C167.022 57.7948 167.372 57.3926 167.6 56.8911V53.9762H166.181C164.279 53.9762 163.267 54.7598 163.144 56.3269L163.131 56.5933C163.131 57.1575 163.297 57.6224 163.63 57.9881C163.963 58.3538 164.419 58.5366 164.998 58.5366ZM166.444 37.6151H170.584L166.943 42.4733H163.854L166.444 37.6151Z" fill="black"/>
<path d="M182.323 48.977C181.806 48.8934 181.35 48.8516 180.956 48.8516C179.519 48.8516 178.576 49.4314 178.13 50.5911V61.6866H174.331V44.73H177.919L178.024 46.7516C178.787 45.1949 179.843 44.4165 181.192 44.4165C181.613 44.4165 182.007 44.4845 182.375 44.6203L182.323 48.977Z" fill="black"/>
<path d="M188.172 61.6866H184.36V44.73H188.172V61.6866ZM184.137 40.3419C184.137 39.6628 184.325 39.1039 184.702 38.6651C185.088 38.2263 185.609 38.0069 186.266 38.0069C186.915 38.0069 187.432 38.2263 187.818 38.6651C188.203 39.1039 188.396 39.6628 188.396 40.3419C188.396 41.0315 188.199 41.5957 187.804 42.0345C187.419 42.4733 186.906 42.6927 186.266 42.6927C185.627 42.6927 185.11 42.4733 184.715 42.0345C184.33 41.5957 184.137 41.0315 184.137 40.3419Z" fill="black"/>
<path d="M190.723 53.0516C190.723 51.3695 190.994 49.8702 191.538 48.5538C192.081 47.2374 192.861 46.2188 193.877 45.4979C194.903 44.777 196.09 44.4165 197.44 44.4165C199.359 44.4165 200.923 45.1165 202.133 46.5165C203.351 47.9165 204.03 49.818 204.17 52.221L204.196 53.3807C204.196 55.9821 203.587 58.0717 202.369 59.6493C201.151 61.2164 199.517 62 197.466 62C195.415 62 193.777 61.2164 192.55 59.6493C191.332 58.0821 190.723 55.9508 190.723 53.2553V53.0516ZM194.522 53.3807C194.522 54.9896 194.776 56.2224 195.284 57.0791C195.792 57.9254 196.52 58.3485 197.466 58.3485C198.386 58.3485 199.105 57.9306 199.622 57.0948C200.139 56.2485 200.397 54.9008 200.397 53.0516C200.397 51.474 200.139 50.2516 199.622 49.3844C199.105 48.5173 198.377 48.0837 197.44 48.0837C196.511 48.0837 195.792 48.5173 195.284 49.3844C194.776 50.2411 194.522 51.5732 194.522 53.3807Z" fill="black"/>
<path d="M225.005 52.362H217.433V61.6866H213.49V38.8688H225.952V42.677H217.433V48.5695H225.005V52.362Z" fill="black"/>
<path d="M232.09 61.6866H228.291V44.73H232.09V61.6866ZM230.973 37.8502H235.114L231.472 42.7083H228.383L230.973 37.8502Z" fill="black"/>
<path d="M243.08 57.0008C243.08 56.4471 242.847 56.0135 242.383 55.7C241.927 55.3762 241.191 55.0889 240.175 54.8381C236.792 53.9918 235.101 52.2784 235.101 49.6978C235.101 48.1934 235.622 46.9397 236.665 45.9367C237.716 44.9233 239.088 44.4165 240.779 44.4165C242.584 44.4165 244.026 44.9233 245.104 45.9367C246.191 46.9501 246.734 48.2665 246.734 49.8859H242.935C242.935 49.2382 242.76 48.7053 242.409 48.2874C242.059 47.8591 241.511 47.6449 240.766 47.6449C240.126 47.6449 239.631 47.8173 239.281 48.162C238.93 48.5068 238.755 48.9456 238.755 49.4784C238.755 49.9799 238.952 50.3874 239.346 50.7008C239.75 51.0038 240.424 51.2702 241.371 51.5001C242.317 51.7195 243.115 51.9702 243.763 52.2523C245.77 53.1299 246.773 54.6501 246.773 56.8127C246.773 58.359 246.217 59.6127 245.104 60.5739C243.991 61.5246 242.554 62 240.792 62C239.601 62 238.54 61.7493 237.611 61.2478C236.691 60.7358 235.968 60.0411 235.442 59.1635C234.916 58.2754 234.654 57.3194 234.654 56.2956H238.255C238.29 57.1 238.54 57.7165 239.005 58.1448C239.469 58.5732 240.091 58.7873 240.871 58.7873C241.599 58.7873 242.146 58.6254 242.514 58.3015C242.891 57.9672 243.08 57.5336 243.08 57.0008Z" fill="black"/>
<path d="M253.241 61.6866H249.429V44.73H253.241V61.6866ZM249.205 40.3419C249.205 39.6628 249.394 39.1039 249.77 38.6651C250.156 38.2263 250.677 38.0069 251.335 38.0069C251.983 38.0069 252.5 38.2263 252.886 38.6651C253.271 39.1039 253.464 39.6628 253.464 40.3419C253.464 41.0315 253.267 41.5957 252.873 42.0345C252.487 42.4733 251.974 42.6927 251.335 42.6927C250.695 42.6927 250.178 42.4733 249.784 42.0345C249.398 41.5957 249.205 41.0315 249.205 40.3419Z" fill="black"/>
<path d="M262.298 58.3485C262.999 58.3485 263.568 58.1187 264.007 57.659C264.445 57.1993 264.673 56.5881 264.69 55.8254H268.252C268.244 56.9747 267.981 58.0299 267.464 58.9911C266.947 59.9418 266.237 60.6836 265.334 61.2164C264.44 61.7388 263.45 62 262.363 62C260.33 62 258.727 61.2321 257.552 59.6963C256.378 58.15 255.791 56.0187 255.791 53.3023V53.0045C255.791 50.3926 256.374 48.3083 257.539 46.7516C258.705 45.1949 260.304 44.4165 262.337 44.4165C264.116 44.4165 265.54 45.0225 266.609 46.2344C267.687 47.4359 268.235 49.0396 268.252 51.0456H264.69C264.673 50.168 264.445 49.4576 264.007 48.9143C263.568 48.3605 262.99 48.0837 262.271 48.0837C261.386 48.0837 260.716 48.4702 260.26 49.2434C259.813 50.0061 259.59 51.2493 259.59 52.9732V53.4433C259.59 55.1881 259.813 56.4418 260.26 57.2045C260.707 57.9672 261.386 58.3485 262.298 58.3485Z" fill="black"/>
<path d="M269.83 53.0516C269.83 51.3695 270.102 49.8702 270.645 48.5538C271.188 47.2374 271.968 46.2188 272.985 45.4979C274.01 44.777 275.198 44.4165 276.547 44.4165C278.466 44.4165 280.031 45.1165 281.24 46.5165C282.458 47.9165 283.137 49.818 283.277 52.221L283.304 53.3807C283.304 55.9821 282.695 58.0717 281.476 59.6493C280.258 61.2164 278.624 62 276.573 62C274.523 62 272.884 61.2164 271.657 59.6493C270.439 58.0821 269.83 55.9508 269.83 53.2553V53.0516ZM273.629 53.3807C273.629 54.9896 273.883 56.2224 274.391 57.0791C274.9 57.9254 275.627 58.3485 276.573 58.3485C277.494 58.3485 278.212 57.9306 278.729 57.0948C279.246 56.2485 279.505 54.9008 279.505 53.0516C279.505 51.474 279.246 50.2516 278.729 49.3844C278.212 48.5173 277.485 48.0837 276.547 48.0837C275.618 48.0837 274.9 48.5173 274.391 49.3844C273.883 50.2411 273.629 51.5732 273.629 53.3807Z" fill="black"/>
</svg>
